<svg width="36" height="36" viewBox="0 0 36 36" fill="none" xmlns="http://www.w3.org/2000/svg">
<path d="M30 15.2727C30 24.8182 18 33 18 33C18 33 6 24.8182 6 15.2727C6 12.0178 7.26428 8.89618 9.51472 6.5946C11.7652 4.29302 14.8174 3 18 3C21.1826 3 24.2348 4.29302 26.4853 6.5946C28.7357 8.89618 30 12.0178 30 15.2727Z" stroke="white" stroke-width="1.3" stroke-linecap="round" stroke-linejoin="round"/>
<path d="M18 19.3636C20.2091 19.3636 22 17.5321 22 15.2727C22 13.0134 20.2091 11.1818 18 11.1818C15.7909 11.1818 14 13.0134 14 15.2727C14 17.5321 15.7909 19.3636 18 19.3636Z" stroke="white" stroke-width="1.3" stroke-linecap="round" stroke-linejoin="round"/>
</svg>
